<svg version="1.1" id="Layer_1" xmlns="http://www.w3.org/2000/svg" xmlns:xlink="http://www.w3.org/1999/xlink" x="0px" y="0px"
	 viewBox="0 0 622.7 701.5" style="enable-background:new 0 0 622.7 701.5;" xml:space="preserve">
<style type="text/css">
	.st0{fill:white;}
</style>
<g>
	<path class="st0" d="M584.6,126.7v459.7l25,50v50h-200v-50l25-50V414.5c-10.6-31.9-62.1-55.6-124-55.6s-113.4,23.7-124,55.6v171.9
		l25,50v50h-200v-50l25-50V126.7l-25-50v-60h50v60h25v-60h50v60h25v-60h50v60l-25,50v132h248v-132l-25-50v-60h50v60h25v-60h50v60h25
		v-60h50v60L584.6,126.7z"/>
</g>
</svg>
